<svg xmlns="http://www.w3.org/2000/svg" fill="none" viewBox="0 0 278 278"><path stroke="#A9DBD8" stroke-dasharray="4 4" stroke-width="1.5" d="M.75 2 .749988 278M92.75 2 92.75 278M0 1.25 92 1.25M0 93.25 92 93.25M0 185.25 92 185.25M0 277.25 92 277.25M0 277.25 92 277.25M184.75 2 184.75 278M92 1.25 184 1.25M92 93.25 184 93.25M92 185.25 184 185.25M92 277.25 184 277.25M92 277.25 184 277.25M276.75 2 276.75 278M184 1.25 276 1.25M184 93.25 276 93.25M184 185.25 276 185.25M184 277.25 276 277.25M184 277.25 276 277.25"/><circle cx="47" cy="48" r="43.5" stroke="#FFDA00" stroke-width="5"/><path stroke="#3A8038" stroke-width="5" d="M94 162.5H184.5"/><path stroke="#B9F180" stroke-width="5" d="M177 232H237M143.077 274.5 207.247 191.079 271.418 274.5H143.077Z"/><path stroke="#3A8038" stroke-width="5" d="M6.03831 274.5L138.506 100.101L270.973 274.5H6.03831Z"/><path stroke="#D3D3D3" stroke-width="5" d="M142 90L181 34"/><path stroke="#D2D2D2" stroke-width="5" d="M76 170L36 130"/><path fill="#A9A9A9" d="M85.4178 122.997C84.7689 122.997 84.1171 122.797 83.5709 122.4L79.9269 119.746 76.2859 122.4C75.1906 123.197 73.6843 123.197 72.589 122.4L68.948 119.746 65.307 122.4C64.2117 123.197 62.7054 123.197 61.6101 122.4L57.9691 119.746 54.328 122.4C53.2328 123.197 51.7264 123.197 50.6312 122.4L46.9902 119.746 43.3491 122.4C42.2539 123.197 40.7475 123.2 39.6523 122.4L36.0112 119.746 32.3702 122.4C31.2749 123.2 29.7686 123.197 28.6734 122.4L25.0352 119.749 21.3971 122.4C20.3019 123.2 18.7956 123.197 17.7003 122.4L14.0593 119.746 10.4182 122.4C9.32296 123.197 7.81663 123.197 6.72138 122.4L1.23632 118.398C-.129069 117.407-.405083 115.527.616758 114.202 1.63566 112.876 3.56777 112.605 4.93316 113.599L8.5742 116.253 12.2152 113.599C13.3105 112.802 14.8168 112.802 15.9121 113.599L19.5531 116.253 23.1912 113.602C24.2865 112.802 25.7928 112.805 26.8881 113.602L30.5262 116.253 34.1672 113.602C35.2625 112.805 36.7688 112.802 37.8641 113.602L41.5051 116.256 45.1461 113.602C46.2414 112.805 47.7477 112.805 48.843 113.602L52.484 116.256 56.1251 113.602C57.2203 112.805 58.7266 112.805 59.8219 113.602L63.4629 116.256 67.104 113.602C68.1992 112.805 69.7056 112.802 70.8008 113.602L74.4419 116.256 78.0829 113.602C79.1782 112.805 80.6816 112.805 81.7797 113.602L85.4237 116.256 89.0677 113.602C90.4302 112.608 92.3623 112.879 93.3841 114.205 94.4059 115.53 94.127 117.41 92.7645 118.404L87.2736 122.403C86.7245 122.803 86.0756 123 85.4267 123L85.4178 122.997ZM267.966 34.9974C267.358 34.9974 266.748 34.8175 266.237 34.4601L262.825 32.0718 259.417 34.4601C258.391 35.1774 256.981 35.1774 255.956 34.4601L252.547 32.0718 249.138 34.4601C248.113 35.1774 246.703 35.1774 245.678 34.4601L242.269 32.0718 238.86 34.4601C237.835 35.1774 236.425 35.1774 235.399 34.4601L231.991 32.0718 228.582 34.4601C227.557 35.1774 226.147 35.18 225.121 34.4601L221.713 32.0718 218.304 34.4601C217.279 35.18 215.868 35.1774 214.843 34.4601L211.437 32.0743 208.031 34.4601C207.006 35.18 205.596 35.1774 204.57 34.4601L201.162 32.0718 197.753 34.4601C196.728 35.1774 195.318 35.1774 194.292 34.4601L189.157 30.8583C187.879 29.9662 187.621 28.2746 188.577 27.0817 189.531 25.8888 191.34 25.6446 192.618 26.5392L196.027 28.9276 199.436 26.5392C200.461 25.822 201.871 25.822 202.896 26.5392L206.305 28.9276 209.711 26.5418C210.736 25.822 212.146 25.8245 213.172 26.5418L216.578 28.9276 219.986 26.5418C221.012 25.8245 222.422 25.822 223.447 26.5418L226.856 28.9302 230.264 26.5418C231.29 25.8245 232.7 25.8245 233.725 26.5418L237.134 28.9302 240.543 26.5418C241.568 25.8245 242.978 25.8245 244.003 26.5418L247.412 28.9302 250.821 26.5418C251.846 25.8245 253.256 25.822 254.282 26.5418L257.69 28.9302 261.099 26.5418C262.124 25.8245 263.532 25.8245 264.56 26.5418L267.971 28.9302 271.383 26.5418C272.658 25.6471 274.467 25.8914 275.423 27.0843 276.38 28.2772 276.119 29.9688 274.843 30.8635L269.703 34.4627C269.189 34.8226 268.581 35 267.974 35L267.966 34.9974ZM267.966 58.9974C267.358 58.9974 266.748 58.8175 266.237 58.4601L262.825 56.0718 259.417 58.4601C258.391 59.1774 256.981 59.1774 255.956 58.4601L252.547 56.0718 249.138 58.4601C248.113 59.1774 246.703 59.1774 245.678 58.4601L242.269 56.0718 238.86 58.4601C237.835 59.1774 236.425 59.1774 235.399 58.4601L231.991 56.0718 228.582 58.4601C227.557 59.1774 226.147 59.18 225.121 58.4601L221.713 56.0718 218.304 58.4601C217.279 59.18 215.868 59.1774 214.843 58.4601L211.437 56.0743 208.031 58.4601C207.006 59.18 205.596 59.1774 204.57 58.4601L201.162 56.0718 197.753 58.4601C196.728 59.1774 195.318 59.1774 194.292 58.4601L189.157 54.8583C187.879 53.9662 187.621 52.2746 188.577 51.0817 189.531 49.8888 191.34 49.6446 192.618 50.5392L196.027 52.9276 199.436 50.5392C200.461 49.822 201.871 49.822 202.896 50.5392L206.305 52.9276 209.711 50.5418C210.736 49.822 212.146 49.8245 213.172 50.5418L216.578 52.9276 219.986 50.5418C221.012 49.8245 222.422 49.822 223.447 50.5418L226.856 52.9302 230.264 50.5418C231.29 49.8245 232.7 49.8245 233.725 50.5418L237.134 52.9302 240.543 50.5418C241.568 49.8245 242.978 49.8245 244.003 50.5418L247.412 52.9302 250.821 50.5418C251.846 49.8245 253.256 49.822 254.282 50.5418L257.69 52.9302 261.099 50.5418C262.124 49.8245 263.532 49.8245 264.56 50.5418L267.971 52.9302 271.383 50.5418C272.658 49.6471 274.467 49.8914 275.423 51.0843 276.38 52.2772 276.119 53.9688 274.843 54.8635L269.703 58.4627C269.189 58.8226 268.581 59 267.974 59L267.966 58.9974Z"/></svg>