<svg width="278" height="278" viewBox="0 0 278 278" fill="none" xmlns="http://www.w3.org/2000/svg">
<style>
.sun-or-moon { fill: none; }
.stars { fill: none; }
.sky-layer1 { fill: #D6EEF1; }
.sky-layer2 { fill: #B6E5E2; }
.sky-layer3 { fill: #7FBEBB; }

@media (prefers-color-scheme: dark) {
  .sun-or-moon { fill: #324A49; }
  .stars { fill: #FAFAFA; }
  .sky-layer1 { fill: #324A49; }
  .sky-layer2 { fill: #293C3B; }
  .sky-layer3 { fill: #1E2C2B; }
}
</style>
<line x1="0.75" y1="2" x2="0.749988" y2="278" stroke="#A9DBD8" stroke-width="1.5" stroke-dasharray="4 4"/>
<line x1="92.75" y1="2" x2="92.75" y2="278" stroke="#A9DBD8" stroke-width="1.5" stroke-dasharray="4 4"/>
<line y1="1.25" x2="92" y2="1.25" stroke="#A9DBD8" stroke-width="1.5" stroke-dasharray="4 4"/>
<line y1="93.25" x2="92" y2="93.25" stroke="#A9DBD8" stroke-width="1.5" stroke-dasharray="4 4"/>
<line y1="185.25" x2="92" y2="185.25" stroke="#A9DBD8" stroke-width="1.5" stroke-dasharray="4 4"/>
<line y1="277.25" x2="92" y2="277.25" stroke="#A9DBD8" stroke-width="1.5" stroke-dasharray="4 4"/>
<line x1="184.75" y1="2" x2="184.75" y2="278" stroke="#A9DBD8" stroke-width="1.5" stroke-dasharray="4 4"/>
<line x1="92" y1="1.25" x2="184" y2="1.25" stroke="#A9DBD8" stroke-width="1.5" stroke-dasharray="4 4"/>
<line x1="92" y1="93.25" x2="184" y2="93.25" stroke="#A9DBD8" stroke-width="1.5" stroke-dasharray="4 4"/>
<line x1="92" y1="185.25" x2="184" y2="185.25" stroke="#A9DBD8" stroke-width="1.5" stroke-dasharray="4 4"/>
<line x1="92" y1="277.25" x2="184" y2="277.25" stroke="#A9DBD8" stroke-width="1.5" stroke-dasharray="4 4"/>
<line x1="276.75" y1="2" x2="276.75" y2="278" stroke="#A9DBD8" stroke-width="1.5" stroke-dasharray="4 4"/>
<line x1="184" y1="1.25" x2="276" y2="1.25" stroke="#A9DBD8" stroke-width="1.5" stroke-dasharray="4 4"/>
<line x1="184" y1="93.25" x2="276" y2="93.25" stroke="#A9DBD8" stroke-width="1.5" stroke-dasharray="4 4"/>
<line x1="184" y1="185.25" x2="276" y2="185.25" stroke="#A9DBD8" stroke-width="1.5" stroke-dasharray="4 4"/>
<line x1="184" y1="277.25" x2="276" y2="277.25" stroke="#A9DBD8" stroke-width="1.5" stroke-dasharray="4 4"/>
<line y1="277.25" x2="92" y2="277.25" stroke="#A9DBD8" stroke-width="1.5" stroke-dasharray="4 4"/>
<line x1="92" y1="277.25" x2="184" y2="277.25" stroke="#A9DBD8" stroke-width="1.5" stroke-dasharray="4 4"/>
<line x1="184" y1="277.25" x2="276" y2="277.25" stroke="#A9DBD8" stroke-width="1.5" stroke-dasharray="4 4"/>
<rect x="1" y="2" width="275" height="92" class="sky-layer1"/>
<rect x="1" y="94" width="275" height="92" class="sky-layer2"/>
<rect x="1" y="186" width="275" height="91" class="sky-layer3"/>
<circle cx="46" cy="48" r="46" fill="#FFDA00"/>
<path d="M138.5 96L276 277H1L138.5 96Z" fill="#FAFAFA"/>
<mask id="mask0_84_99" style="mask-type:alpha" maskUnits="userSpaceOnUse" x="1" y="96" width="276" height="182">
<path d="M138.506 96L276.011 277.033H1L138.506 96Z" fill="#FAFAFA"/>
</mask>
<g mask="url(#mask0_84_99)">
<path d="M239.644 204.991C237.643 204.991 235.633 204.351 233.948 203.08L222.712 194.589L211.485 203.08C208.108 205.631 203.463 205.631 200.086 203.08L188.859 194.589L177.632 203.08C174.254 205.631 169.61 205.631 166.232 203.08L155.005 194.589L143.778 203.08C140.401 205.631 135.756 205.631 132.379 203.08L121.152 194.589L109.925 203.08C106.548 205.631 101.903 205.64 98.5255 203.08L87.2984 194.589L76.0712 203.08C72.694 205.64 68.0492 205.631 64.672 203.08L53.4539 194.598L42.2358 203.08C38.8586 205.64 34.2139 205.631 30.8367 203.08L19.6095 194.589L8.38235 203.08C5.00515 205.631 0.360371 205.631 -3.01683 203.08L-19.93 190.274C-24.1402 187.102 -24.9913 181.087 -21.8404 176.846C-18.6986 172.605 -12.741 171.736 -8.53081 174.917L2.69634 183.409L13.9235 174.917C17.3007 172.367 21.9455 172.367 25.3227 174.917L36.5498 183.409L47.7679 174.926C51.1451 172.367 55.7899 172.376 59.1671 174.926L70.3852 183.409L81.6124 174.926C84.9895 172.376 89.6343 172.367 93.0115 174.926L104.239 183.418L115.466 174.926C118.843 172.376 123.488 172.376 126.865 174.926L138.092 183.418L149.319 174.926C152.697 172.376 157.341 172.376 160.718 174.926L171.946 183.418L183.173 174.926C186.55 172.376 191.195 172.367 194.572 174.926L205.799 183.418L217.026 174.926C220.403 172.376 225.039 172.376 228.425 174.926L239.662 183.418L250.898 174.926C255.099 171.745 261.057 172.614 264.207 176.855C267.358 181.097 266.498 187.111 262.297 190.292L245.366 203.09C243.673 204.369 241.672 205 239.671 205L239.644 204.991Z" fill="#F0F0F0"/>
<path d="M239.644 225.991C237.643 225.991 235.633 225.351 233.948 224.08L222.712 215.589L211.485 224.08C208.108 226.631 203.463 226.631 200.086 224.08L188.859 215.589L177.632 224.08C174.254 226.631 169.61 226.631 166.232 224.08L155.005 215.589L143.778 224.08C140.401 226.631 135.756 226.631 132.379 224.08L121.152 215.589L109.925 224.08C106.548 226.631 101.903 226.64 98.5255 224.08L87.2984 215.589L76.0712 224.08C72.694 226.64 68.0492 226.631 64.672 224.08L53.4539 215.598L42.2358 224.08C38.8586 226.64 34.2139 226.631 30.8367 224.08L19.6095 215.589L8.38235 224.08C5.00515 226.631 0.360371 226.631 -3.01683 224.08L-19.93 211.274C-24.1402 208.102 -24.9913 202.087 -21.8404 197.846C-18.6986 193.605 -12.741 192.736 -8.53081 195.917L2.69634 204.409L13.9235 195.917C17.3007 193.367 21.9455 193.367 25.3227 195.917L36.5498 204.409L47.7679 195.926C51.1451 193.367 55.7899 193.376 59.1671 195.926L70.3852 204.409L81.6124 195.926C84.9895 193.376 89.6343 193.367 93.0115 195.926L104.239 204.418L115.466 195.926C118.843 193.376 123.488 193.376 126.865 195.926L138.092 204.418L149.319 195.926C152.697 193.376 157.341 193.376 160.718 195.926L171.946 204.418L183.173 195.926C186.55 193.376 191.195 193.367 194.572 195.926L205.799 204.418L217.026 195.926C220.403 193.376 225.039 193.376 228.425 195.926L239.662 204.418L250.898 195.926C255.099 192.745 261.057 193.614 264.207 197.855C267.358 202.097 266.498 208.111 262.297 211.292L245.366 224.09C243.673 225.369 241.672 226 239.671 226L239.644 225.991Z" fill="#B9F180"/>
<path d="M239.644 246.991C237.643 246.991 235.633 246.351 233.948 245.08L222.712 236.589L211.485 245.08C208.108 247.631 203.463 247.631 200.086 245.08L188.859 236.589L177.632 245.08C174.254 247.631 169.61 247.631 166.232 245.08L155.005 236.589L143.778 245.08C140.401 247.631 135.756 247.631 132.379 245.08L121.152 236.589L109.925 245.08C106.548 247.631 101.903 247.64 98.5255 245.08L87.2984 236.589L76.0712 245.08C72.694 247.64 68.0492 247.631 64.672 245.08L53.4539 236.598L42.2358 245.08C38.8586 247.64 34.2139 247.631 30.8367 245.08L19.6095 236.589L8.38235 245.08C5.00515 247.631 0.360371 247.631 -3.01683 245.08L-19.93 232.274C-24.1402 229.102 -24.9913 223.087 -21.8404 218.846C-18.6986 214.605 -12.741 213.736 -8.53081 216.917L2.69634 225.409L13.9235 216.917C17.3007 214.367 21.9455 214.367 25.3227 216.917L36.5498 225.409L47.7679 216.926C51.1451 214.367 55.7899 214.376 59.1671 216.926L70.3852 225.409L81.6124 216.926C84.9895 214.376 89.6343 214.367 93.0115 216.926L104.239 225.418L115.466 216.926C118.843 214.376 123.488 214.376 126.865 216.926L138.092 225.418L149.319 216.926C152.697 214.376 157.341 214.376 160.718 216.926L171.946 225.418L183.173 216.926C186.55 214.376 191.195 214.367 194.572 216.926L205.799 225.418L217.026 216.926C220.403 214.376 225.039 214.376 228.425 216.926L239.662 225.418L250.898 216.926C255.099 213.745 261.057 214.614 264.207 218.855C267.358 223.097 266.498 229.111 262.297 232.292L245.366 245.09C243.673 246.369 241.672 247 239.671 247L239.644 246.991Z" fill="#98C966"/>
<path d="M239.644 267.991C237.643 267.991 235.633 267.351 233.948 266.08L222.712 257.589L211.485 266.08C208.108 268.631 203.463 268.631 200.086 266.08L188.859 257.589L177.632 266.08C174.254 268.631 169.61 268.631 166.232 266.08L155.005 257.589L143.778 266.08C140.401 268.631 135.756 268.631 132.379 266.08L121.152 257.589L109.925 266.08C106.548 268.631 101.903 268.64 98.5255 266.08L87.2984 257.589L76.0712 266.08C72.694 268.64 68.0492 268.631 64.672 266.08L53.4539 257.598L42.2358 266.08C38.8586 268.64 34.2139 268.631 30.8367 266.08L19.6095 257.589L8.38235 266.08C5.00515 268.631 0.360371 268.631 -3.01683 266.08L-19.93 253.274C-24.1402 250.102 -24.9913 244.087 -21.8404 239.846C-18.6986 235.605 -12.741 234.736 -8.53081 237.917L2.69634 246.409L13.9235 237.917C17.3007 235.367 21.9455 235.367 25.3227 237.917L36.5498 246.409L47.7679 237.926C51.1451 235.367 55.7899 235.376 59.1671 237.926L70.3852 246.409L81.6124 237.926C84.9895 235.376 89.6343 235.367 93.0115 237.926L104.239 246.418L115.466 237.926C118.843 235.376 123.488 235.376 126.865 237.926L138.092 246.418L149.319 237.926C152.697 235.376 157.341 235.376 160.718 237.926L171.946 246.418L183.173 237.926C186.55 235.376 191.195 235.367 194.572 237.926L205.799 246.418L217.026 237.926C220.403 235.376 225.039 235.376 228.425 237.926L239.662 246.418L250.898 237.926C255.099 234.745 261.057 235.614 264.207 239.855C267.358 244.097 266.498 250.111 262.297 253.292L245.366 266.09C243.673 267.369 241.672 268 239.671 268L239.644 267.991Z" fill="#719C45"/>
<path d="M239.644 288.991C237.643 288.991 235.633 288.351 233.948 287.08L222.712 278.589L211.485 287.08C208.108 289.631 203.463 289.631 200.086 287.08L188.859 278.589L177.632 287.08C174.254 289.631 169.61 289.631 166.232 287.08L155.005 278.589L143.778 287.08C140.401 289.631 135.756 289.631 132.379 287.08L121.152 278.589L109.925 287.08C106.548 289.631 101.903 289.64 98.5255 287.08L87.2984 278.589L76.0712 287.08C72.694 289.64 68.0492 289.631 64.672 287.08L53.4539 278.598L42.2358 287.08C38.8586 289.64 34.2139 289.631 30.8367 287.08L19.6095 278.589L8.38235 287.08C5.00515 289.631 0.360371 289.631 -3.01683 287.08L-19.93 274.274C-24.1402 271.102 -24.9913 265.087 -21.8404 260.846C-18.6986 256.605 -12.741 255.736 -8.53081 258.917L2.69634 267.409L13.9235 258.917C17.3007 256.367 21.9455 256.367 25.3227 258.917L36.5498 267.409L47.7679 258.926C51.1451 256.367 55.7899 256.376 59.1671 258.926L70.3852 267.409L81.6124 258.926C84.9895 256.376 89.6343 256.367 93.0115 258.926L104.239 267.418L115.466 258.926C118.843 256.376 123.488 256.376 126.865 258.926L138.092 267.418L149.319 258.926C152.697 256.376 157.341 256.376 160.718 258.926L171.946 267.418L183.173 258.926C186.55 256.376 191.195 256.367 194.572 258.926L205.799 267.418L217.026 258.926C220.403 256.376 225.039 256.376 228.425 258.926L239.662 267.418L250.898 258.926C255.099 255.745 261.057 256.614 264.207 260.855C267.358 265.097 266.498 271.111 262.297 274.292L245.366 287.09C243.673 288.369 241.672 289 239.671 289L239.644 288.991Z" fill="#3A8038"/>
</g>
<path d="M207.5 187L276 277H139L207.5 187Z" fill="#FAFAFA"/>
<mask id="mask1_84_99" style="mask-type:alpha" maskUnits="userSpaceOnUse" x="139" y="188" width="137" height="89">
<path d="M207.5 188L276 277H139L207.5 188Z" fill="#DFDFDF"/>
</mask>
<g mask="url(#mask1_84_99)">
<path d="M322.741 255.012C320.74 255.012 318.73 254.372 317.046 253.102L305.81 244.61L294.583 253.102C291.206 255.652 286.561 255.652 283.184 253.102L271.956 244.61L260.729 253.102C257.352 255.652 252.707 255.652 249.33 253.102L238.103 244.61L226.876 253.102C223.499 255.652 218.854 255.652 215.477 253.102L204.249 244.61L193.022 253.102C189.645 255.652 185 255.661 181.623 253.102L170.396 244.61L159.169 253.102C155.792 255.661 151.147 255.652 147.77 253.102L136.552 244.619L125.333 253.102C121.956 255.661 117.312 255.652 113.934 253.102L102.707 244.61L91.48 253.102C88.1028 255.652 83.458 255.652 80.0808 253.102L63.1677 240.295C58.9575 237.124 58.1064 231.109 61.2572 226.868C64.399 222.626 70.3567 221.758 74.5668 224.939L85.794 233.431L97.0211 224.939C100.398 222.388 105.043 222.388 108.42 224.939L119.647 233.431L130.866 224.948C134.243 222.388 138.888 222.398 142.265 224.948L153.483 233.431L164.71 224.948C168.087 222.398 172.732 222.388 176.109 224.948L187.336 233.44L198.563 224.948C201.941 222.398 206.585 222.398 209.963 224.948L221.19 233.44L232.417 224.948C235.794 222.398 240.439 222.398 243.816 224.948L255.043 233.44L266.27 224.948C269.648 222.398 274.292 222.388 277.67 224.948L288.897 233.44L300.124 224.948C303.501 222.398 308.137 222.398 311.523 224.948L322.759 233.44L333.996 224.948C338.197 221.767 344.154 222.635 347.305 226.877C350.456 231.118 349.596 237.133 345.395 240.314L328.463 253.111C326.77 254.391 324.769 255.021 322.768 255.021L322.741 255.012Z" fill="#F0F0F0"/>
<path d="M322.741 276.012C320.74 276.012 318.73 275.372 317.046 274.102L305.81 265.61L294.583 274.102C291.206 276.652 286.561 276.652 283.184 274.102L271.956 265.61L260.729 274.102C257.352 276.652 252.707 276.652 249.33 274.102L238.103 265.61L226.876 274.102C223.499 276.652 218.854 276.652 215.477 274.102L204.249 265.61L193.022 274.102C189.645 276.652 185 276.661 181.623 274.102L170.396 265.61L159.169 274.102C155.792 276.661 151.147 276.652 147.77 274.102L136.552 265.619L125.333 274.102C121.956 276.661 117.312 276.652 113.934 274.102L102.707 265.61L91.48 274.102C88.1028 276.652 83.458 276.652 80.0808 274.102L63.1677 261.295C58.9575 258.124 58.1064 252.109 61.2572 247.868C64.399 243.626 70.3567 242.758 74.5668 245.939L85.794 254.431L97.0211 245.939C100.398 243.388 105.043 243.388 108.42 245.939L119.647 254.431L130.866 245.948C134.243 243.388 138.888 243.398 142.265 245.948L153.483 254.431L164.71 245.948C168.087 243.398 172.732 243.388 176.109 245.948L187.336 254.44L198.563 245.948C201.941 243.398 206.585 243.398 209.963 245.948L221.19 254.44L232.417 245.948C235.794 243.398 240.439 243.398 243.816 245.948L255.043 254.44L266.27 245.948C269.648 243.398 274.292 243.388 277.67 245.948L288.897 254.44L300.124 245.948C303.501 243.398 308.137 243.398 311.523 245.948L322.759 254.44L333.996 245.948C338.197 242.767 344.154 243.635 347.305 247.877C350.456 252.118 349.596 258.133 345.395 261.314L328.463 274.111C326.77 275.391 324.769 276.021 322.768 276.021L322.741 276.012Z" fill="#B9F180"/>
<path d="M322.741 297.012C320.74 297.012 318.73 296.372 317.046 295.102L305.81 286.61L294.583 295.102C291.206 297.652 286.561 297.652 283.184 295.102L271.956 286.61L260.729 295.102C257.352 297.652 252.707 297.652 249.33 295.102L238.103 286.61L226.876 295.102C223.499 297.652 218.854 297.652 215.477 295.102L204.249 286.61L193.022 295.102C189.645 297.652 185 297.661 181.623 295.102L170.396 286.61L159.169 295.102C155.792 297.661 151.147 297.652 147.77 295.102L136.552 286.619L125.333 295.102C121.956 297.661 117.312 297.652 113.934 295.102L102.707 286.61L91.48 295.102C88.1028 297.652 83.458 297.652 80.0808 295.102L63.1677 282.295C58.9575 279.124 58.1064 273.109 61.2572 268.868C64.399 264.626 70.3567 263.758 74.5668 266.939L85.794 275.431L97.0211 266.939C100.398 264.388 105.043 264.388 108.42 266.939L119.647 275.431L130.866 266.948C134.243 264.388 138.888 264.398 142.265 266.948L153.483 275.431L164.71 266.948C168.087 264.398 172.732 264.388 176.109 266.948L187.336 275.44L198.563 266.948C201.941 264.398 206.585 264.398 209.963 266.948L221.19 275.44L232.417 266.948C235.794 264.398 240.439 264.398 243.816 266.948L255.043 275.44L266.27 266.948C269.648 264.398 274.292 264.388 277.67 266.948L288.897 275.44L300.124 266.948C303.501 264.398 308.137 264.398 311.523 266.948L322.759 275.44L333.996 266.948C338.197 263.767 344.154 264.635 347.305 268.877C350.456 273.118 349.596 279.133 345.395 282.314L328.463 295.111C326.77 296.391 324.769 297.021 322.768 297.021L322.741 297.012Z" fill="#98C966"/>
</g>
<mask id="mask2_84_99" style="mask-type:alpha" maskUnits="userSpaceOnUse" x="0" y="2" width="92" height="92">
<circle cx="46" cy="48" r="46" fill="#FFDA00"/>
</mask>
<g mask="url(#mask2_84_99)">
<path d="M163.472 62.9909C161.471 62.9909 159.461 62.351 157.777 61.0804L146.54 52.5885L135.313 61.0804C131.936 63.6307 127.291 63.6307 123.914 61.0804L112.687 52.5885L101.46 61.0804C98.0826 63.6307 93.4378 63.6307 90.0606 61.0804L78.8335 52.5885L67.6063 61.0804C64.2291 63.6307 59.5843 63.6307 56.2071 61.0804L44.98 52.5885L33.7528 61.0804C30.3756 63.6307 25.7308 63.6399 22.3536 61.0804L11.1265 52.5885L-0.10067 61.0804C-3.47787 63.6399 -8.12264 63.6307 -11.4998 61.0804L-22.7179 52.5977L-33.936 61.0804C-37.3132 63.6399 -41.958 63.6307 -45.3352 61.0804L-56.5624 52.5885L-67.7895 61.0804C-71.1667 63.6307 -75.8115 63.6307 -79.1887 61.0804L-96.1019 48.274C-100.312 45.1021 -101.163 39.0874 -98.0123 34.846C-94.8705 30.6047 -88.9129 29.7363 -84.7027 32.9173L-73.4755 41.4092L-62.2484 32.9173C-58.8712 30.367 -54.2264 30.367 -50.8492 32.9173L-39.6221 41.4092L-28.4039 32.9264C-25.0267 30.367 -20.382 30.3761 -17.0048 32.9264L-5.78667 41.4092L5.44048 32.9264C8.81767 30.3761 13.4625 30.367 16.8397 32.9264L28.0668 41.4183L39.294 32.9264C42.6712 30.3761 47.3159 30.3761 50.6931 32.9264L61.9203 41.4183L73.1474 32.9264C76.5246 30.3761 81.1694 30.3761 84.5466 32.9264L95.7738 41.4183L107.001 32.9264C110.378 30.3761 115.023 30.367 118.4 32.9264L129.627 41.4183L140.854 32.9264C144.232 30.3761 148.867 30.3761 152.254 32.9264L163.49 41.4183L174.726 32.9264C178.927 29.7454 184.885 30.6138 188.036 34.8552C191.186 39.0965 190.326 45.1113 186.125 48.2923L169.194 61.0896C167.501 62.3693 165.5 63 163.499 63L163.472 62.9909Z" fill="#FFC328"/>
<path d="M163.472 83.9909C161.471 83.9909 159.461 83.351 157.777 82.0804L146.54 73.5885L135.313 82.0804C131.936 84.6307 127.291 84.6307 123.914 82.0804L112.687 73.5885L101.46 82.0804C98.0826 84.6307 93.4378 84.6307 90.0606 82.0804L78.8335 73.5885L67.6063 82.0804C64.2291 84.6307 59.5843 84.6307 56.2071 82.0804L44.98 73.5885L33.7528 82.0804C30.3756 84.6307 25.7308 84.6399 22.3536 82.0804L11.1265 73.5885L-0.10067 82.0804C-3.47787 84.6399 -8.12264 84.6307 -11.4998 82.0804L-22.7179 73.5977L-33.936 82.0804C-37.3132 84.6399 -41.958 84.6307 -45.3352 82.0804L-56.5624 73.5885L-67.7895 82.0804C-71.1667 84.6307 -75.8115 84.6307 -79.1887 82.0804L-96.1019 69.274C-100.312 66.1021 -101.163 60.0874 -98.0123 55.846C-94.8705 51.6047 -88.9129 50.7363 -84.7027 53.9173L-73.4755 62.4092L-62.2484 53.9173C-58.8712 51.367 -54.2264 51.367 -50.8492 53.9173L-39.6221 62.4092L-28.4039 53.9264C-25.0267 51.367 -20.382 51.3761 -17.0048 53.9264L-5.78667 62.4092L5.44048 53.9264C8.81767 51.3761 13.4625 51.367 16.8397 53.9264L28.0668 62.4183L39.294 53.9264C42.6712 51.3761 47.3159 51.3761 50.6931 53.9264L61.9203 62.4183L73.1474 53.9264C76.5246 51.3761 81.1694 51.3761 84.5466 53.9264L95.7738 62.4183L107.001 53.9264C110.378 51.3761 115.023 51.367 118.4 53.9264L129.627 62.4183L140.854 53.9264C144.232 51.3761 148.867 51.3761 152.254 53.9264L163.49 62.4183L174.726 53.9264C178.927 50.7454 184.885 51.6138 188.036 55.8552C191.186 60.0965 190.326 66.1113 186.125 69.2923L169.194 82.0896C167.501 83.3693 165.5 84 163.499 84L163.472 83.9909Z" fill="#FFB628"/>
<path d="M163.472 104.991C161.471 104.991 159.461 104.351 157.777 103.08L146.54 94.5885L135.313 103.08C131.936 105.631 127.291 105.631 123.914 103.08L112.687 94.5885L101.46 103.08C98.0826 105.631 93.4378 105.631 90.0606 103.08L78.8335 94.5885L67.6063 103.08C64.2291 105.631 59.5843 105.631 56.2071 103.08L44.98 94.5885L33.7528 103.08C30.3756 105.631 25.7308 105.64 22.3536 103.08L11.1265 94.5885L-0.10067 103.08C-3.47787 105.64 -8.12264 105.631 -11.4998 103.08L-22.7179 94.5977L-33.936 103.08C-37.3132 105.64 -41.958 105.631 -45.3352 103.08L-56.5624 94.5885L-67.7895 103.08C-71.1667 105.631 -75.8115 105.631 -79.1887 103.08L-96.1019 90.274C-100.312 87.1021 -101.163 81.0874 -98.0123 76.846C-94.8705 72.6047 -88.9129 71.7363 -84.7027 74.9173L-73.4755 83.4092L-62.2484 74.9173C-58.8712 72.367 -54.2264 72.367 -50.8492 74.9173L-39.6221 83.4092L-28.4039 74.9264C-25.0267 72.367 -20.382 72.3761 -17.0048 74.9264L-5.78667 83.4092L5.44048 74.9264C8.81767 72.3761 13.4625 72.367 16.8397 74.9264L28.0668 83.4183L39.294 74.9264C42.6712 72.3761 47.3159 72.3761 50.6931 74.9264L61.9203 83.4183L73.1474 74.9264C76.5246 72.3761 81.1694 72.3761 84.5466 74.9264L95.7738 83.4183L107.001 74.9264C110.378 72.3761 115.023 72.367 118.4 74.9264L129.627 83.4183L140.854 74.9264C144.232 72.3761 148.867 72.3761 152.254 74.9264L163.49 83.4183L174.726 74.9264C178.927 71.7454 184.885 72.6138 188.036 76.8552C191.186 81.0965 190.326 87.1113 186.125 90.2923L169.194 103.09C167.501 104.369 165.5 105 163.499 105L163.472 104.991Z" fill="#FF9B00"/>
</g>
<circle cx="37" cy="48" r="37" class="sun-or-moon"/>
<rect x="230.484" y="28" width="8" height="8" transform="rotate(45 230.484 28)" class="stars"/>
<rect x="239.484" y="145" width="8" height="8" transform="rotate(45 239.484 145)" class="stars"/>
<rect x="195.484" y="86" width="8" height="8" transform="rotate(45 195.484 86)" class="stars"/>
<rect x="45.4844" y="115" width="8" height="8" transform="rotate(45 45.4844 115)" class="stars"/>
<rect x="138.484" y="48" width="8" height="8" transform="rotate(45 138.484 48)" class="stars"/>
</svg>
