<svg xmlns="http://www.w3.org/2000/svg" fill="none" viewBox="0 0 278 278"><path stroke="#A9DBD8" stroke-dasharray="4 4" stroke-width="1.5" d="M.75 2 .749988 278M92.75 2v276M0 1.25h92m-92 92h92m-92 92h92m-92 92h92m-92 0h92M184.75 2v276M92 1.25h92m-92 92h92m-92 92h92m-92 92h92m-92 0h92M276.75 2v276M184 1.25h92m-92 92h92m-92 92h92m-92 92h92m-92 0h92"/><circle cx="46" cy="48" r="46" fill="#FFDA00"/><path fill="#3A8038" d="M137.506 95.9675 275.011 277H0L137.506 95.9675Z"/><path fill="#B9F180" d="M206.753 186.979 276.001 277H137.506l69.247-90.021Z"/></svg>