<svg xmlns="http://www.w3.org/2000/svg" fill="none" viewBox="0 0 278 278"><path fill="#D6EEF1" d="M1 2h276v92H1z"/><path fill="#B6E5E2" d="M1 94h276v92H1z"/><path fill="#7FBEBB" d="M1 186h276v92H1z"/><path stroke="#A9DBD8" stroke-dasharray="4 4" stroke-width="1.5" d="M.75 2 .749988 278M92.75 2v276M0 1.25h92m-92 92h92m-92 92h92m-92 92h92m-92 0h92M184.75 2v276M92 1.25h92m-92 92h92m-92 92h92m-92 92h92m-92 0h92M276.75 2v276M184 1.25h92m-92 92h92m-92 92h92m-92 92h92m-92 0h92"/><circle cx="46" cy="48" r="46" fill="#FFDA00"/><path fill="#FAFAFA" d="m139 96 138 181H1L139 96Z"/><mask id="a" width="276" height="182" x="1" y="96" maskUnits="userSpaceOnUse" style="mask-type:alpha"><path fill="#FAFAFA" d="m138.506 96 137.505 181.033H1L138.506 96Z"/></mask><g mask="url(#a)"><path fill="#F0F0F0" d="M239.644 204.991c-2.001 0-4.011-.64-5.695-1.911l-11.236-8.491-11.227 8.491c-3.378 2.551-8.022 2.551-11.4 0l-11.227-8.491-11.227 8.491c-3.377 2.551-8.022 2.551-11.399 0l-11.227-8.491-11.227 8.491c-3.378 2.551-8.022 2.551-11.4 0l-11.227-8.491-11.227 8.491c-3.377 2.551-8.022 2.56-11.399 0l-11.2272-8.491-11.2271 8.491c-3.3772 2.56-8.022 2.551-11.3992 0l-11.2181-8.482-11.2181 8.482c-3.3772 2.56-8.022 2.551-11.3992 0L19.61 194.589 8.38284 203.08c-3.3772 2.551-8.021981 2.551-11.39918 0l-16.91316-12.806c-4.2102-3.172-5.0613-9.187-1.9104-13.428 3.1418-4.241 9.0994-5.11 13.30958-1.929l11.22715 8.492 11.22717-8.492c3.3772-2.55 8.022-2.55 11.3992 0l11.2271 8.492 11.2181-8.483c3.3772-2.559 8.022-2.55 11.3992 0l11.2181 8.483 11.2271-8.483c3.3772-2.55 8.022-2.559 11.3992 0l11.227 8.492 11.227-8.492c3.378-2.55 8.022-2.55 11.399 0l11.228 8.492 11.227-8.492c3.377-2.55 8.022-2.55 11.399 0l11.227 8.492 11.227-8.492c3.377-2.55 8.022-2.559 11.399 0l11.228 8.492 11.227-8.492c3.377-2.55 8.013-2.55 11.399 0l11.236 8.492 11.236-8.492c4.201-3.181 10.159-2.312 13.31 1.929 3.151 4.242 2.291 10.256-1.91 13.437l-16.932 12.798c-1.693 1.279-3.694 1.91-5.695 1.91l-.027-.009Z"/><path fill="#B9F180" d="M239.644 225.991c-2.001 0-4.011-.64-5.695-1.911l-11.236-8.491-11.227 8.491c-3.378 2.551-8.022 2.551-11.4 0l-11.227-8.491-11.227 8.491c-3.377 2.551-8.022 2.551-11.399 0l-11.227-8.491-11.227 8.491c-3.378 2.551-8.022 2.551-11.4 0l-11.227-8.491-11.227 8.491c-3.377 2.551-8.022 2.56-11.399 0l-11.2272-8.491-11.2271 8.491c-3.3772 2.56-8.022 2.551-11.3992 0l-11.2181-8.482-11.2181 8.482c-3.3772 2.56-8.022 2.551-11.3992 0L19.61 215.589 8.38284 224.08c-3.3772 2.551-8.021981 2.551-11.39918 0l-16.91316-12.806c-4.2102-3.172-5.0613-9.187-1.9104-13.428 3.1418-4.241 9.0994-5.11 13.30958-1.929l11.22715 8.492 11.22717-8.492c3.3772-2.55 8.022-2.55 11.3992 0l11.2271 8.492 11.2181-8.483c3.3772-2.559 8.022-2.55 11.3992 0l11.2181 8.483 11.2271-8.483c3.3772-2.55 8.022-2.559 11.3992 0l11.227 8.492 11.227-8.492c3.378-2.55 8.022-2.55 11.399 0l11.228 8.492 11.227-8.492c3.377-2.55 8.022-2.55 11.399 0l11.227 8.492 11.227-8.492c3.377-2.55 8.022-2.559 11.399 0l11.228 8.492 11.227-8.492c3.377-2.55 8.013-2.55 11.399 0l11.236 8.492 11.236-8.492c4.201-3.181 10.159-2.312 13.31 1.929 3.151 4.242 2.291 10.256-1.91 13.437l-16.932 12.798c-1.693 1.279-3.694 1.91-5.695 1.91l-.027-.009Z"/><path fill="#98C966" d="M239.644 246.991c-2.001 0-4.011-.64-5.695-1.911l-11.236-8.491-11.227 8.491c-3.378 2.551-8.022 2.551-11.4 0l-11.227-8.491-11.227 8.491c-3.377 2.551-8.022 2.551-11.399 0l-11.227-8.491-11.227 8.491c-3.378 2.551-8.022 2.551-11.4 0l-11.227-8.491-11.227 8.491c-3.377 2.551-8.022 2.56-11.399 0l-11.2272-8.491-11.2271 8.491c-3.3772 2.56-8.022 2.551-11.3992 0l-11.2181-8.482-11.2181 8.482c-3.3772 2.56-8.022 2.551-11.3992 0L19.61 236.589 8.38284 245.08c-3.3772 2.551-8.021981 2.551-11.39918 0l-16.91316-12.806c-4.2102-3.172-5.0613-9.187-1.9104-13.428 3.1418-4.241 9.0994-5.11 13.30958-1.929l11.22715 8.492 11.22717-8.492c3.3772-2.55 8.022-2.55 11.3992 0l11.2271 8.492 11.2181-8.483c3.3772-2.559 8.022-2.55 11.3992 0l11.2181 8.483 11.2271-8.483c3.3772-2.55 8.022-2.559 11.3992 0l11.227 8.492 11.227-8.492c3.378-2.55 8.022-2.55 11.399 0l11.228 8.492 11.227-8.492c3.377-2.55 8.022-2.55 11.399 0l11.227 8.492 11.227-8.492c3.377-2.55 8.022-2.559 11.399 0l11.228 8.492 11.227-8.492c3.377-2.55 8.013-2.55 11.399 0l11.236 8.492 11.236-8.492c4.201-3.181 10.159-2.312 13.31 1.929 3.151 4.242 2.291 10.256-1.91 13.437l-16.932 12.798c-1.693 1.279-3.694 1.91-5.695 1.91l-.027-.009Z"/><path fill="#719C45" d="M239.644 267.991c-2.001 0-4.011-.64-5.695-1.911l-11.236-8.491-11.227 8.491c-3.378 2.551-8.022 2.551-11.4 0l-11.227-8.491-11.227 8.491c-3.377 2.551-8.022 2.551-11.399 0l-11.227-8.491-11.227 8.491c-3.378 2.551-8.022 2.551-11.4 0l-11.227-8.491-11.227 8.491c-3.377 2.551-8.022 2.56-11.399 0l-11.2272-8.491-11.2271 8.491c-3.3772 2.56-8.022 2.551-11.3992 0l-11.2181-8.482-11.2181 8.482c-3.3772 2.56-8.022 2.551-11.3992 0L19.61 257.589 8.38284 266.08c-3.3772 2.551-8.021981 2.551-11.39918 0l-16.91316-12.806c-4.2102-3.172-5.0613-9.187-1.9104-13.428 3.1418-4.241 9.0994-5.11 13.30958-1.929l11.22715 8.492 11.22717-8.492c3.3772-2.55 8.022-2.55 11.3992 0l11.2271 8.492 11.2181-8.483c3.3772-2.559 8.022-2.55 11.3992 0l11.2181 8.483 11.2271-8.483c3.3772-2.55 8.022-2.559 11.3992 0l11.227 8.492 11.227-8.492c3.378-2.55 8.022-2.55 11.399 0l11.228 8.492 11.227-8.492c3.377-2.55 8.022-2.55 11.399 0l11.227 8.492 11.227-8.492c3.377-2.55 8.022-2.559 11.399 0l11.228 8.492 11.227-8.492c3.377-2.55 8.013-2.55 11.399 0l11.236 8.492 11.236-8.492c4.201-3.181 10.159-2.312 13.31 1.929 3.151 4.242 2.291 10.256-1.91 13.437l-16.932 12.798c-1.693 1.279-3.694 1.91-5.695 1.91l-.027-.009Z"/><path fill="#3A8038" d="M239.644 288.991c-2.001 0-4.011-.64-5.695-1.911l-11.236-8.491-11.227 8.491c-3.378 2.551-8.022 2.551-11.4 0l-11.227-8.491-11.227 8.491c-3.377 2.551-8.022 2.551-11.399 0l-11.227-8.491-11.227 8.491c-3.378 2.551-8.022 2.551-11.4 0l-11.227-8.491-11.227 8.491c-3.377 2.551-8.022 2.56-11.399 0l-11.2272-8.491-11.2271 8.491c-3.3772 2.56-8.022 2.551-11.3992 0l-11.2181-8.482-11.2181 8.482c-3.3772 2.56-8.022 2.551-11.3992 0L19.61 278.589 8.38284 287.08c-3.3772 2.551-8.021981 2.551-11.39918 0l-16.91316-12.806c-4.2102-3.172-5.0613-9.187-1.9104-13.428 3.1418-4.241 9.0994-5.11 13.30958-1.929l11.22715 8.492 11.22717-8.492c3.3772-2.55 8.022-2.55 11.3992 0l11.2271 8.492 11.2181-8.483c3.3772-2.559 8.022-2.55 11.3992 0l11.2181 8.483 11.2271-8.483c3.3772-2.55 8.022-2.559 11.3992 0l11.227 8.492 11.227-8.492c3.378-2.55 8.022-2.55 11.399 0l11.228 8.492 11.227-8.492c3.377-2.55 8.022-2.55 11.399 0l11.227 8.492 11.227-8.492c3.377-2.55 8.022-2.559 11.399 0l11.228 8.492 11.227-8.492c3.377-2.55 8.013-2.55 11.399 0l11.236 8.492 11.236-8.492c4.201-3.181 10.159-2.312 13.31 1.929 3.151 4.242 2.291 10.256-1.91 13.437l-16.932 12.798c-1.693 1.279-3.694 1.91-5.695 1.91l-.027-.009Z"/></g><path fill="#FAFAFA" d="m208 187 69 90H139l69-90Z"/><mask id="b" width="139" height="91" x="139" y="187" maskUnits="userSpaceOnUse" style="mask-type:alpha"><path fill="#DFDFDF" d="m208.247 187 69.248 90.022H139L208.247 187Z"/></mask><g mask="url(#b)"><path fill="#F0F0F0" d="M322.74 254.012c-2.001 0-4.011-.64-5.695-1.91l-11.236-8.492-11.227 8.492c-3.377 2.55-8.022 2.55-11.399 0l-11.228-8.492-11.227 8.492c-3.377 2.55-8.022 2.55-11.399 0l-11.227-8.492-11.227 8.492c-3.377 2.55-8.022 2.55-11.399 0l-11.227-8.492-11.228 8.492c-3.377 2.55-8.022 2.559-11.399 0l-11.227-8.492-11.227 8.492c-3.377 2.559-8.022 2.55-11.399 0l-11.218-8.483-11.218 8.483c-3.378 2.559-8.022 2.55-11.4 0l-11.227-8.492-11.227 8.492c-3.3772 2.55-8.0219 2.55-11.3991 0l-16.9132-12.807c-4.2102-3.171-5.0613-9.186-1.9104-13.427 3.1418-4.242 9.0994-5.11 13.3096-1.929l11.2271 8.492 11.2272-8.492c3.3768-2.551 8.0218-2.551 11.3988 0l11.228 8.492 11.218-8.483c3.377-2.56 8.022-2.55 11.399 0l11.218 8.483 11.227-8.483c3.377-2.55 8.022-2.56 11.399 0l11.227 8.492 11.228-8.492c3.377-2.55 8.021-2.55 11.399 0l11.227 8.492 11.227-8.492c3.377-2.55 8.022-2.55 11.399 0l11.227 8.492 11.227-8.492c3.378-2.55 8.022-2.56 11.4 0l11.227 8.492 11.227-8.492c3.377-2.55 8.013-2.55 11.399 0l11.236 8.492 11.237-8.492c4.201-3.181 10.158-2.313 13.309 1.929 3.151 4.241 2.291 10.256-1.91 13.437l-16.932 12.797c-1.693 1.28-3.694 1.91-5.695 1.91l-.027-.009Z"/><path fill="#B9F180" d="M322.74 275.012c-2.001 0-4.011-.64-5.695-1.91l-11.236-8.492-11.227 8.492c-3.377 2.55-8.022 2.55-11.399 0l-11.228-8.492-11.227 8.492c-3.377 2.55-8.022 2.55-11.399 0l-11.227-8.492-11.227 8.492c-3.377 2.55-8.022 2.55-11.399 0l-11.227-8.492-11.228 8.492c-3.377 2.55-8.022 2.559-11.399 0l-11.227-8.492-11.227 8.492c-3.377 2.559-8.022 2.55-11.399 0l-11.218-8.483-11.218 8.483c-3.378 2.559-8.022 2.55-11.4 0l-11.227-8.492-11.227 8.492c-3.3772 2.55-8.0219 2.55-11.3991 0l-16.9132-12.807c-4.2102-3.171-5.0613-9.186-1.9104-13.427 3.1418-4.242 9.0994-5.11 13.3096-1.929l11.2271 8.492 11.2272-8.492c3.3768-2.551 8.0218-2.551 11.3988 0l11.228 8.492 11.218-8.483c3.377-2.56 8.022-2.55 11.399 0l11.218 8.483 11.227-8.483c3.377-2.55 8.022-2.56 11.399 0l11.227 8.492 11.228-8.492c3.377-2.55 8.021-2.55 11.399 0l11.227 8.492 11.227-8.492c3.377-2.55 8.022-2.55 11.399 0l11.227 8.492 11.227-8.492c3.378-2.55 8.022-2.56 11.4 0l11.227 8.492 11.227-8.492c3.377-2.55 8.013-2.55 11.399 0l11.236 8.492 11.237-8.492c4.201-3.181 10.158-2.313 13.309 1.929 3.151 4.241 2.291 10.256-1.91 13.437l-16.932 12.797c-1.693 1.28-3.694 1.91-5.695 1.91l-.027-.009Z"/><path fill="#98C966" d="M322.74 296.012c-2.001 0-4.011-.64-5.695-1.91l-11.236-8.492-11.227 8.492c-3.377 2.55-8.022 2.55-11.399 0l-11.228-8.492-11.227 8.492c-3.377 2.55-8.022 2.55-11.399 0l-11.227-8.492-11.227 8.492c-3.377 2.55-8.022 2.55-11.399 0l-11.227-8.492-11.228 8.492c-3.377 2.55-8.022 2.559-11.399 0l-11.227-8.492-11.227 8.492c-3.377 2.559-8.022 2.55-11.399 0l-11.218-8.483-11.218 8.483c-3.378 2.559-8.022 2.55-11.4 0l-11.227-8.492-11.227 8.492c-3.3772 2.55-8.0219 2.55-11.3991 0l-16.9132-12.807c-4.2102-3.171-5.0613-9.186-1.9104-13.427 3.1418-4.242 9.0994-5.11 13.3096-1.929l11.2271 8.492 11.2272-8.492c3.3768-2.551 8.0218-2.551 11.3988 0l11.228 8.492 11.218-8.483c3.377-2.56 8.022-2.55 11.399 0l11.218 8.483 11.227-8.483c3.377-2.55 8.022-2.56 11.399 0l11.227 8.492 11.228-8.492c3.377-2.55 8.021-2.55 11.399 0l11.227 8.492 11.227-8.492c3.377-2.55 8.022-2.55 11.399 0l11.227 8.492 11.227-8.492c3.378-2.55 8.022-2.56 11.4 0l11.227 8.492 11.227-8.492c3.377-2.55 8.013-2.55 11.399 0l11.236 8.492 11.237-8.492c4.201-3.181 10.158-2.313 13.309 1.929 3.151 4.241 2.291 10.256-1.91 13.437l-16.932 12.797c-1.693 1.28-3.694 1.91-5.695 1.91l-.027-.009Z"/></g><mask id="c" width="92" height="92" x="0" y="2" maskUnits="userSpaceOnUse" style="mask-type:alpha"><circle cx="46" cy="48" r="46" fill="#FFDA00"/></mask><g mask="url(#c)"><path fill="#FFC328" d="M163.472 62.9909c-2.001 0-4.011-.6399-5.695-1.9105l-11.236-8.4919-11.227 8.4919c-3.377 2.5503-8.022 2.5503-11.399 0l-11.228-8.4919-11.227 8.4919c-3.3769 2.5503-8.0217 2.5503-11.3989 0l-11.2272-8.4919-11.2271 8.4919c-3.3772 2.5503-8.022 2.5503-11.3992 0l-11.2271-8.4919-11.2272 8.4919c-3.3772 2.5503-8.022 2.5595-11.3992 0L11.127 52.5885-.10018 61.0804c-3.3772 2.5595-8.02198 2.5503-11.39922 0l-11.2181-8.4827-11.218 8.4827c-3.3772 2.5595-8.022 2.5503-11.3992 0l-11.2272-8.4919-11.2271 8.4919c-3.3772 2.5503-8.022 2.5503-11.3992 0L-96.1014 48.274c-4.2106-3.1719-5.0616-9.1866-1.9104-13.428 3.1418-4.2413 9.0994-5.1097 13.3096-1.9287l11.2272 8.4919 11.2271-8.4919c3.3772-2.5503 8.022-2.5503 11.3992 0l11.2271 8.4919 11.2181-8.4828c3.3772-2.5594 8.022-2.5503 11.3992 0l11.21811 8.4828 11.22715-8.4828c3.3772-2.5503 8.02194-2.5594 11.39914 0l11.2272 8.4919 11.2271-8.4919c3.3772-2.5503 8.022-2.5503 11.3992 0l11.2272 8.4919 11.2271-8.4919c3.3772-2.5503 8.022-2.5503 11.3992 0l11.2272 8.4919 11.2267-8.4919c3.378-2.5503 8.022-2.5594 11.4 0l11.227 8.4919 11.227-8.4919c3.377-2.5503 8.013-2.5503 11.399 0l11.236 8.4919 11.236-8.4919c4.202-3.181 10.159-2.3126 13.31 1.9288 3.151 4.2413 2.291 10.2561-1.91 13.4371l-16.932 12.7973C167.501 62.3693 165.5 63 163.499 63l-.027-.0091Z"/><path fill="#FFB628" d="M163.472 83.9909c-2.001 0-4.011-.6399-5.695-1.9105l-11.236-8.4919-11.227 8.4919c-3.377 2.5503-8.022 2.5503-11.399 0l-11.228-8.4919-11.227 8.4919c-3.3769 2.5503-8.0217 2.5503-11.3989 0l-11.2272-8.4919-11.2271 8.4919c-3.3772 2.5503-8.022 2.5503-11.3992 0l-11.2271-8.4919-11.2272 8.4919c-3.3772 2.5503-8.022 2.5595-11.3992 0L11.127 73.5885-.10018 82.0804c-3.3772 2.5595-8.02198 2.5503-11.39922 0l-11.2181-8.4827-11.218 8.4827c-3.3772 2.5595-8.022 2.5503-11.3992 0l-11.2272-8.4919-11.2271 8.4919c-3.3772 2.5503-8.022 2.5503-11.3992 0L-96.1014 69.274c-4.2106-3.1719-5.0616-9.1866-1.9104-13.428 3.1418-4.2413 9.0994-5.1097 13.3096-1.9287l11.2272 8.4919 11.2271-8.4919c3.3772-2.5503 8.022-2.5503 11.3992 0l11.2271 8.4919 11.2181-8.4828c3.3772-2.5594 8.022-2.5503 11.3992 0l11.21811 8.4828 11.22715-8.4828c3.3772-2.5503 8.02194-2.5594 11.39914 0l11.2272 8.4919 11.2271-8.4919c3.3772-2.5503 8.022-2.5503 11.3992 0l11.2272 8.4919 11.2271-8.4919c3.3772-2.5503 8.022-2.5503 11.3992 0l11.2272 8.4919 11.2267-8.4919c3.378-2.5503 8.022-2.5594 11.4 0l11.227 8.4919 11.227-8.4919c3.377-2.5503 8.013-2.5503 11.399 0l11.236 8.4919 11.236-8.4919c4.202-3.181 10.159-2.3126 13.31 1.9288 3.151 4.2413 2.291 10.2561-1.91 13.4371l-16.932 12.7973C167.501 83.3693 165.5 84 163.499 84l-.027-.0091Z"/><path fill="#FF9B00" d="M163.472 104.991c-2.001 0-4.011-.64-5.695-1.911l-11.236-8.4915-11.227 8.4915c-3.377 2.551-8.022 2.551-11.399 0l-11.228-8.4915-11.227 8.4915c-3.3769 2.551-8.0217 2.551-11.3989 0l-11.2272-8.4915-11.2271 8.4915c-3.3772 2.551-8.022 2.551-11.3992 0l-11.2271-8.4915-11.2272 8.4915c-3.3772 2.551-8.022 2.56-11.3992 0L11.127 94.5885-.10018 103.08c-3.3772 2.56-8.02198 2.551-11.39922 0l-11.2181-8.4823-11.218 8.4823c-3.3772 2.56-8.022 2.551-11.3992 0l-11.2272-8.4915-11.2271 8.4915c-3.3772 2.551-8.022 2.551-11.3992 0l-16.9132-12.806c-4.2106-3.1719-5.0616-9.1866-1.9104-13.428 3.1418-4.2413 9.0994-5.1097 13.3096-1.9287l11.2272 8.4919 11.2271-8.4919c3.3772-2.5503 8.022-2.5503 11.3992 0l11.2271 8.4919 11.2181-8.4828c3.3772-2.5594 8.022-2.5503 11.3992 0l11.21811 8.4828 11.22715-8.4828c3.3772-2.5503 8.02194-2.5594 11.39914 0l11.2272 8.4919 11.2271-8.4919c3.3772-2.5503 8.022-2.5503 11.3992 0l11.2272 8.4919 11.2271-8.4919c3.3772-2.5503 8.022-2.5503 11.3992 0l11.2272 8.4919 11.2267-8.4919c3.378-2.5503 8.022-2.5594 11.4 0l11.227 8.4919 11.227-8.4919c3.377-2.5503 8.013-2.5503 11.399 0l11.236 8.4919 11.236-8.4919c4.202-3.181 10.159-2.3126 13.31 1.9288 3.151 4.2413 2.291 10.2561-1.91 13.4371L169.194 103.09c-1.693 1.279-3.694 1.91-5.695 1.91l-.027-.009Z"/></g></svg>