<svg xmlns="http://www.w3.org/2000/svg" fill="none" viewBox="0 0 1022 463">
  <path stroke="#A9DBD8" stroke-dasharray="4 4" stroke-width="1.5" d="M.75 2 .74998 462M92.75 2 92.75 462M0 1.25 92 1.25M0 93.25 92 93.25M0 185.25 92 185.25M0 277.25 92 277.25M0 369.25 92 369.25M0 461.25 92 461.25M652.75 2 652.75 462M560 1.25 652 1.25M560 93.25 652 93.25M560 185.25 652 185.25M560 277.25 652 277.25M560 369.25 652 369.25M560 461.25 652 461.25M372.75 2 372.75 462M280 1.25 372 1.25M280 93.25 372 93.25M280 185.25 372 185.25M280 277.25 372 277.25M280 369.25 372 369.25M280 461.25 372 461.25M928.75 2 928.75 462M836 1.25 928 1.25M836 93.25 928 93.25M836 185.25 928 185.25M836 277.25 928 277.25M836 369.25 928 369.25M836 461.25 928 461.25M184.75 2 184.75 462M92 1.25 184 1.25M92 93.25 184 93.25M92 185.25 184 185.25M92 277.25 184 277.25M92 369.25 184 369.25M92 461.25 184 461.25M744.75 2 744.75 462M652 1.25 744 1.25M652 93.25 744 93.25M652 185.25 744 185.25M652 277.25 744 277.25M652 369.25 744 369.25M652 461.25 744 461.25M464.75 2 464.75 462M372 1.25 464 1.25M372 93.25 464 93.25M372 185.25 464 185.25M372 277.25 464 277.25M372 369.25 464 369.25M372 461.25 464 461.25M1020.75 2 1020.75 462M928 1.25 1020 1.25M928 93.25 1020 93.25M928 185.25 1020 185.25M928 277.25 1020 277.25M928 369.25 1020 369.25M928 461.25 1020 461.25M276.75 2 276.75 462M184 1.25 276 1.25M184 93.25 276 93.25M184 185.25 276 185.25M184 277.25 276 277.25M184 369.25 276 369.25M184 461.25 276 461.25M836.75 2 836.75 462M744 1.25 836 1.25M744 93.25 836 93.25M744 185.25 836 185.25M744 277.25 836 277.25M744 369.25 836 369.25M744 461.25 836 461.25M556.75 2 556.75 462M464 1.25 556 1.25M464 93.25 556 93.25M464 185.25 556 185.25M464 277.25 556 277.25M464 369.25 556 369.25M464 461.25 556 461.25"/>
  <path fill="#B6E5E2" d="M373 186H652V277H373z"/>
  <path fill="#FFDA00" d="M94 2H372V93H94z"/>
  <path fill="#3B413B" d="M315.569 62.2744C312.404 62.2744 309.882 61.3657 308.002 59.5484 306.153 57.6997 305.229 55.24 305.229 52.1694V37.1294C305.229 34.0587 306.153 31.6147 308.002 29.7974 309.882 27.9487 312.404 27.0244 315.569 27.0244 318.733 27.0244 321.24 27.9487 323.089 29.7974 324.969 31.6147 325.909 34.0587 325.909 37.1294V52.1694C325.909 55.24 324.969 57.6997 323.089 59.5484 321.209 61.3657 318.702 62.2744 315.569 62.2744ZM315.569 58.6554C317.449 58.6554 318.953 58.06 320.081 56.8694 321.24 55.6474 321.82 54.0807 321.82 52.1694V37.1294C321.82 35.218 321.24 33.667 320.081 32.4764 318.953 31.2544 317.449 30.6434 315.569 30.6434 313.689 30.6434 312.169 31.2544 311.01 32.4764 309.882 33.667 309.318 35.218 309.318 37.1294V52.1694C309.318 54.0807 309.882 55.6474 311.01 56.8694 312.169 58.06 313.689 58.6554 315.569 58.6554ZM315.569 47.4694C314.879 47.4694 314.315 47.2344 313.877 46.7644 313.438 46.2944 313.219 45.6677 313.219 44.8844V44.1794C313.219 43.396 313.438 42.7694 313.877 42.2994 314.315 41.8294 314.879 41.5944 315.569 41.5944 316.289 41.5944 316.853 41.8294 317.261 42.2994 317.699 42.7694 317.919 43.396 317.919 44.1794V44.8844C317.919 45.6677 317.699 46.2944 317.261 46.7644 316.853 47.2344 316.289 47.4694 315.569 47.4694ZM287.387 62.2744C284.222 62.2744 281.7 61.3657 279.82 59.5484 277.971 57.6997 277.047 55.24 277.047 52.1694V37.1294C277.047 34.0587 277.971 31.6147 279.82 29.7974 281.7 27.9487 284.222 27.0244 287.387 27.0244 290.552 27.0244 293.058 27.9487 294.907 29.7974 296.787 31.6147 297.727 34.0587 297.727 37.1294V52.1694C297.727 55.24 296.787 57.6997 294.907 59.5484 293.027 61.3657 290.52 62.2744 287.387 62.2744ZM287.387 58.6554C289.267 58.6554 290.771 58.06 291.899 56.8694 293.058 55.6474 293.638 54.0807 293.638 52.1694V37.1294C293.638 35.218 293.058 33.667 291.899 32.4764 290.771 31.2544 289.267 30.6434 287.387 30.6434 285.507 30.6434 283.987 31.2544 282.828 32.4764 281.7 33.667 281.136 35.218 281.136 37.1294V52.1694C281.136 54.0807 281.7 55.6474 282.828 56.8694 283.987 58.06 285.507 58.6554 287.387 58.6554ZM287.387 47.4694C286.698 47.4694 286.134 47.2344 285.695 46.7644 285.256 46.2944 285.037 45.6677 285.037 44.8844V44.1794C285.037 43.396 285.256 42.7694 285.695 42.2994 286.134 41.8294 286.698 41.5944 287.387 41.5944 288.108 41.5944 288.672 41.8294 289.079 42.2994 289.518 42.7694 289.737 43.396 289.737 44.1794V44.8844C289.737 45.6677 289.518 46.2944 289.079 46.7644 288.672 47.2344 288.108 47.4694 287.387 47.4694ZM259.299 35.5314C262.307 35.5314 264.688 36.299 266.443 37.8344 268.198 39.3384 269.075 41.4064 269.075 44.0384V61.8044H264.939V56.8694H264.892C264.767 58.4987 263.952 59.8147 262.448 60.8174 260.944 61.7887 259.064 62.2744 256.808 62.2744 254.176 62.2744 252.077 61.585 250.51 60.2064 248.943 58.8277 248.16 56.9634 248.16 54.6134 248.16 52.138 248.928 50.1954 250.463 48.7854 252.03 47.3754 254.16 46.6704 256.855 46.6704H264.845V44.1794C264.845 42.6127 264.344 41.4064 263.341 40.5604 262.37 39.683 261.007 39.2444 259.252 39.2444 257.717 39.2444 256.448 39.5577 255.445 40.1844 254.442 40.811 253.863 41.6727 253.706 42.7694H249.476C249.758 40.576 250.792 38.8214 252.578 37.5054 254.364 36.1894 256.604 35.5314 259.299 35.5314ZM257.795 58.9374C259.863 58.9374 261.555 58.4517 262.871 57.4804 264.187 56.4777 264.845 55.1774 264.845 53.5794V49.9134H256.949C255.539 49.9134 254.427 50.305 253.612 51.0884 252.797 51.8717 252.39 52.9527 252.39 54.3314 252.39 55.7727 252.876 56.9007 253.847 57.7154 254.818 58.53 256.134 58.9374 257.795 58.9374ZM236.57 27.4944H240.8V61.8044H236.57V56.8694H236.523C236.303 58.5614 235.567 59.893 234.314 60.8644 233.06 61.8044 231.462 62.2744 229.52 62.2744 226.919 62.2744 224.851 61.4127 223.316 59.6894 221.812 57.966 221.06 55.6317 221.06 52.6864V45.1194C221.06 42.1427 221.812 39.7927 223.316 38.0694 224.851 36.346 226.919 35.4844 229.52 35.4844 231.431 35.4844 233.013 35.97 234.267 36.9414 235.52 37.9127 236.272 39.2287 236.523 40.8894H236.664L236.57 35.0144V27.4944ZM236.57 45.3544C236.57 43.4117 236.068 41.892 235.066 40.7954 234.063 39.6987 232.684 39.1504 230.93 39.1504 229.144 39.1504 227.749 39.6987 226.747 40.7954 225.775 41.8607 225.29 43.3804 225.29 45.3544V52.4044C225.29 54.3784 225.775 55.9137 226.747 57.0104 227.749 58.0757 229.144 58.6084 230.93 58.6084 232.684 58.6084 234.063 58.06 235.066 56.9634 236.068 55.8667 236.57 54.347 236.57 52.4044V45.3544ZM199.082 61.8044V40.3254H191.562V36.4714H199.082V33.9804C199.082 31.975 199.693 30.3927 200.915 29.2334 202.137 28.074 203.797 27.4944 205.897 27.4944H213.887V31.3484H205.897C205.082 31.3484 204.44 31.5834 203.97 32.0534 203.531 32.492 203.312 33.1187 203.312 33.9334V36.4714H213.887V40.3254H203.312V61.8044H199.082ZM170.9 61.8044V40.3254H163.38V36.4714H170.9V33.9804C170.9 31.975 171.511 30.3927 172.733 29.2334 173.955 28.074 175.616 27.4944 177.715 27.4944H185.705V31.3484H177.715C176.9 31.3484 176.258 31.5834 175.788 32.0534 175.349 32.492 175.13 33.1187 175.13 33.9334V36.4714H185.705V40.3254H175.13V61.8044H170.9ZM139.569 61.8044H136.279L138.018 52.4044H134.023V49.3494H138.582L140.274 39.9494H135.668V36.8944H140.838L142.577 27.4944H145.867L144.128 36.8944H151.648L153.387 27.4944H156.677L154.938 36.8944H158.933V39.9494H154.374L152.682 49.3494H157.288V52.4044H152.118L150.379 61.8044H147.089L148.828 52.4044H141.308L139.569 61.8044ZM143.564 39.9494 141.872 49.3494H149.392L151.084 39.9494H143.564Z"/>
  <path fill="#EFEFEF" d="M.994629 278H183.999629V461.005H.994629z"/>
  <circle cx="45.7514" cy="324.746" r="44.7568" fill="#FFDA00"/>
  <path fill="#3A8038" d="M45.7514 375.47L91.5027 462H0L45.7514 375.47Z"/>
  <path fill="#FF97B6" d="M92.4971 278.995H183.9998V370.4977H92.4971z"/>
  <circle cx="46" cy="325" r="45" fill="#FFDA00"/>
  <path fill="#3A8038" d="M46 376L92 463H0L46 376Z"/>
  <path fill="#FF97B6" d="M92 278H184V370H92z"/>
  <path fill="#EFEFEF" d="M0 94H92V186H0zM653 2H744V93H653zM653 186H744V277H653zM277 186H372V277H277z"/>
  <path fill="#B9F180" d="M745 94H1020V277H745z"/>
  <path fill="#3A8038" d="M976.788 148.106C975.229 148.106 973.662 147.634 972.35 146.696L963.593 140.43 954.843 146.696C952.211 148.578 948.591 148.578 945.959 146.696L937.209 140.43 928.459 146.696C925.827 148.578 922.207 148.578 919.575 146.696L910.825 140.43 902.076 146.696C899.444 148.578 895.824 148.578 893.192 146.696L884.442 140.43 875.692 146.696C873.06 148.578 869.44 148.585 866.808 146.696L858.058 140.43 849.308 146.696C846.676 148.585 843.056 148.578 840.424 146.696L831.682 140.437 822.939 146.696C820.307 148.585 816.687 148.578 814.055 146.696L805.305 140.43 796.555 146.696C793.923 148.578 790.303 148.578 787.671 146.696L774.49 137.246C771.209 134.906 770.546 130.468 773.001 127.338 775.45 124.208 780.093 123.567 783.374 125.915L792.124 132.181 800.874 125.915C803.506 124.033 807.126 124.033 809.758 125.915L818.507 132.181 827.25 125.921C829.882 124.033 833.502 124.04 836.134 125.921L844.877 132.181 853.627 125.921C856.259 124.04 859.879 124.033 862.511 125.921L871.261 132.188 880.01 125.921C882.642 124.04 886.262 124.04 888.894 125.921L897.644 132.188 906.394 125.921C909.026 124.04 912.646 124.04 915.278 125.921L924.028 132.188 932.778 125.921C935.41 124.04 939.03 124.033 941.662 125.921L950.411 132.188 959.161 125.921C961.793 124.04 965.406 124.04 968.045 125.921L976.802 132.188 985.559 125.921C988.833 123.574 993.476 124.215 995.932 127.345 998.387 130.474 997.717 134.913 994.443 137.26L981.248 146.703C979.928 147.647 978.369 148.113 976.809 148.113L976.788 148.106ZM976.788 198.284C975.229 198.284 973.662 197.811 972.35 196.874L963.593 190.608 954.843 196.874C952.211 198.756 948.591 198.756 945.959 196.874L937.209 190.608 928.459 196.874C925.827 198.756 922.207 198.756 919.575 196.874L910.825 190.608 902.076 196.874C899.444 198.756 895.824 198.756 893.192 196.874L884.442 190.608 875.692 196.874C873.06 198.756 869.44 198.762 866.808 196.874L858.058 190.608 849.308 196.874C846.676 198.762 843.056 198.756 840.424 196.874L831.682 190.614 822.939 196.874C820.307 198.762 816.687 198.756 814.055 196.874L805.305 190.608 796.555 196.874C793.923 198.756 790.303 198.756 787.671 196.874L774.49 187.424C771.209 185.083 770.546 180.645 773.001 177.515 775.45 174.386 780.093 173.745 783.374 176.092L792.124 182.358 800.874 176.092C803.506 174.21 807.126 174.21 809.758 176.092L818.507 182.358 827.25 176.099C829.882 174.21 833.502 174.217 836.134 176.099L844.877 182.358 853.627 176.099C856.259 174.217 859.879 174.21 862.511 176.099L871.261 182.365 880.01 176.099C882.642 174.217 886.262 174.217 888.894 176.099L897.644 182.365 906.394 176.099C909.026 174.217 912.646 174.217 915.278 176.099L924.028 182.365 932.778 176.099C935.41 174.217 939.03 174.21 941.662 176.099L950.411 182.365 959.161 176.099C961.793 174.217 965.406 174.217 968.045 176.099L976.802 182.365 985.559 176.099C988.833 173.752 993.476 174.392 995.932 177.522 998.387 180.652 997.717 185.09 994.443 187.437L981.248 196.881C979.928 197.825 978.369 198.29 976.809 198.29L976.788 198.284ZM976.788 248.461C975.229 248.461 973.662 247.989 972.35 247.051L963.593 240.785 954.843 247.051C952.211 248.933 948.591 248.933 945.959 247.051L937.209 240.785 928.459 247.051C925.827 248.933 922.207 248.933 919.575 247.051L910.825 240.785 902.076 247.051C899.444 248.933 895.824 248.933 893.192 247.051L884.442 240.785 875.692 247.051C873.06 248.933 869.44 248.94 866.808 247.051L858.058 240.785 849.308 247.051C846.676 248.94 843.056 248.933 840.424 247.051L831.682 240.792 822.939 247.051C820.307 248.94 816.687 248.933 814.055 247.051L805.305 240.785 796.555 247.051C793.923 248.933 790.303 248.933 787.671 247.051L774.49 237.601C771.209 235.261 770.546 230.822 773.001 227.693 775.45 224.563 780.093 223.922 783.374 226.27L792.124 232.536 800.874 226.27C803.506 224.388 807.126 224.388 809.758 226.27L818.507 232.536 827.25 226.276C829.882 224.388 833.502 224.394 836.134 226.276L844.877 232.536 853.627 226.276C856.259 224.394 859.879 224.388 862.511 226.276L871.261 232.542 880.01 226.276C882.642 224.394 886.262 224.394 888.894 226.276L897.644 232.542 906.394 226.276C909.026 224.394 912.646 224.394 915.278 226.276L924.028 232.542 932.778 226.276C935.41 224.394 939.03 224.388 941.662 226.276L950.411 232.542 959.161 226.276C961.793 224.394 965.406 224.394 968.045 226.276L976.802 232.542 985.559 226.276C988.833 223.929 993.476 224.57 995.932 227.699 998.387 230.829 997.717 235.267 994.443 237.615L981.248 247.058C979.928 248.002 978.369 248.468 976.809 248.468L976.788 248.461Z"/>
  <path fill="#EFEFEF" d="M838 370H928V460H838z"/>
</svg>